<?xml version="1.0" encoding="UTF-8" standalone="no"?>
<!-- Generator: Adobe Illustrator 19.2.1, SVG Export Plug-In . SVG Version: 6.00 Build 0)  -->

<svg
   xmlns:dc="http://purl.org/dc/elements/1.1/"
   xmlns:cc="http://creativecommons.org/ns#"
   xmlns:rdf="http://www.w3.org/1999/02/22-rdf-syntax-ns#"
   xmlns:svg="http://www.w3.org/2000/svg"
   xmlns="http://www.w3.org/2000/svg"
   xmlns:sodipodi="http://sodipodi.sourceforge.net/DTD/sodipodi-0.dtd"
   xmlns:inkscape="http://www.inkscape.org/namespaces/inkscape"
   version="1.1"
   id="Слой_1"
   x="0px"
   y="0px"
   viewBox="0 0 147 47"
   style="enable-background:new 0 0 147 47;"
   xml:space="preserve"
   sodipodi:docname="footer-logo-en1.svg"
   inkscape:version="0.92.3 (2405546, 2018-03-11)"><metadata
   id="metadata67"><rdf:RDF><cc:Work
       rdf:about=""><dc:format>image/svg+xml</dc:format><dc:type
         rdf:resource="http://purl.org/dc/dcmitype/StillImage" /><dc:title></dc:title></cc:Work></rdf:RDF></metadata><defs
   id="defs65" /><sodipodi:namedview
   pagecolor="#ffffff"
   bordercolor="#666666"
   borderopacity="1"
   objecttolerance="10"
   gridtolerance="10"
   guidetolerance="10"
   inkscape:pageopacity="0"
   inkscape:pageshadow="2"
   inkscape:window-width="640"
   inkscape:window-height="480"
   id="namedview63"
   showgrid="false"
   inkscape:zoom="3.2108844"
   inkscape:cx="73.5"
   inkscape:cy="23.5"
   inkscape:window-x="0"
   inkscape:window-y="0"
   inkscape:window-maximized="0"
   inkscape:current-layer="Слой_1" />
<style
   type="text/css"
   id="style58">
	.st0{fill:gray;}
	.st1{font-family:'Comfortaa';}
	.st2{font-size:22px;}
	.st3{letter-spacing:3.5px; font-weight:200;}
</style>
<g
   aria-label="fruton"
   transform="translate(27.1122,31.299681)"
   style="font-weight:200;font-size:22px;font-family:Comfortaa;letter-spacing:3.5px;fill:#808080"
   id="text60"><path
     d="m 7.734375,-17.1875 q 0.3544922,0 0.6015625,0.257813 0.2578125,0.24707 0.2578125,0.601562 0,0.354492 -0.2578125,0.612305 -0.2470703,0.24707 -0.6015625,0.24707 -3.4375,0 -3.4375,3.4375 v 0.644531 h 2.5888672 q 0.3544922,0 0.6015625,0.257813 0.2578125,0.24707 0.2578125,0.601562 0,0.354492 -0.2578125,0.6123049 -0.2470703,0.2470703 -0.6015625,0.2470703 H 4.296875 v 8.8085938 q 0,0.35449219 -0.2578125,0.61230469 Q 3.7919922,0 3.4375,0 3.0830078,0 2.8251953,-0.24707031 2.578125,-0.50488281 2.578125,-0.859375 V -9.6679688 H 1.71875 q -0.3544922,0 -0.6123047,-0.2470703 -0.2470703,-0.2578129 -0.2470703,-0.6123049 0,-0.354492 0.2470703,-0.601562 0.2578125,-0.257813 0.6123047,-0.257813 h 0.859375 v -0.644531 q 0,-5.15625 5.15625,-5.15625 z"
     style="font-weight:200;font-size:22px;font-family:Comfortaa;letter-spacing:3.5px;fill:#808080"
     id="path69"
     inkscape:connector-curvature="0" /><path
     d="m 12.953125,-11.171875 q 0,-0.354492 0.24707,-0.601563 0.257813,-0.257812 0.612305,-0.257812 0.354492,0 0.601563,0.257812 0.257812,0.247071 0.257812,0.601563 v 0.945312 q 1.804687,-1.804687 4.296875,-1.804687 1.256836,0 2.30957,0.429687 0.19336,0.0752 0.354492,0.225586 0.247071,0.257813 0.247071,0.612305 0,0.354492 -0.257813,0.612305 -0.24707,0.2470701 -0.601562,0.2470701 -0.204102,0 -0.375977,-0.085937 Q 19.881836,-10.3125 18.96875,-10.3125 q -1.783203,0 -3.040039,1.2568359 -1.256836,1.256836 -1.256836,3.0400391 v 5.15625 q 0,0.35449219 -0.257812,0.61230469 Q 14.166992,0 13.8125,0 13.458008,0 13.200195,-0.24707031 12.953125,-0.50488281 12.953125,-0.859375 Z"
     style="font-weight:200;font-size:22px;font-family:Comfortaa;letter-spacing:3.5px;fill:#808080"
     id="path71"
     inkscape:connector-curvature="0" /><path
     d="m 37.9375,-0.859375 q 0,0.35449219 -0.257813,0.61230469 Q 37.432617,0 37.078125,0 36.723633,0 36.46582,-0.24707031 36.21875,-0.50488281 36.21875,-0.859375 V -1.5576172 Q 34.607422,0 32.351562,0 q -2.30957,0 -3.953125,-1.6328125 -1.632812,-1.6435547 -1.632812,-3.953125 v -5.5859375 q 0,-0.354492 0.24707,-0.601563 0.257813,-0.257812 0.612305,-0.257812 0.354492,0 0.601562,0.257812 0.257813,0.247071 0.257813,0.601563 v 5.5859375 q 0,1.6005859 1.12793,2.7392578 1.138672,1.1279297 2.739257,1.1279297 1.600586,0 2.728516,-1.1279297 1.138672,-1.1386719 1.138672,-2.7392578 v -5.5859375 q 0,-0.354492 0.24707,-0.601563 0.257813,-0.257812 0.612305,-0.257812 0.354492,0 0.601562,0.257812 0.257813,0.247071 0.257813,0.601563 z"
     style="font-weight:200;font-size:22px;font-family:Comfortaa;letter-spacing:3.5px;fill:#808080"
     id="path73"
     inkscape:connector-curvature="0" /><path
     d="m 49.171875,-1.71875 q 0.354492,0 0.601562,0.2578125 0.257813,0.2470703 0.257813,0.6015625 0,0.35449219 -0.257813,0.61230469 Q 49.526367,0 49.171875,0 44.875,0 44.875,-4.296875 V -10.3125 h -0.859375 q -0.354492,0 -0.612305,-0.24707 -0.24707,-0.257813 -0.24707,-0.612305 0,-0.354492 0.24707,-0.601563 0.257813,-0.257812 0.612305,-0.257812 H 44.875 v -4.296875 q 0,-0.354492 0.24707,-0.601562 0.257813,-0.257813 0.612305,-0.257813 0.354492,0 0.601562,0.257813 0.257813,0.24707 0.257813,0.601562 v 4.296875 h 1.729492 q 0.354492,0 0.601563,0.257812 0.257812,0.247071 0.257812,0.601563 0,0.354492 -0.257812,0.612305 -0.247071,0.24707 -0.601563,0.24707 H 46.59375 v 6.015625 q 0,2.578125 2.578125,2.578125 z"
     style="font-weight:200;font-size:22px;font-family:Comfortaa;letter-spacing:3.5px;fill:#808080"
     id="path75"
     inkscape:connector-curvature="0" /><path
     d="m 67.28125,-6.015625 q 0,2.4921875 -1.761719,4.2539063 Q 63.757812,0 61.265625,0 58.773437,0 57.011719,-1.7617187 55.25,-3.5234375 55.25,-6.015625 q 0,-2.4921875 1.761719,-4.253906 1.761718,-1.761719 4.253906,-1.761719 2.492187,0 4.253906,1.761719 1.761719,1.7617185 1.761719,4.253906 z M 61.265625,-10.3125 q -1.783203,0 -3.040039,1.2568359 -1.256836,1.256836 -1.256836,3.0400391 0,1.7832031 1.256836,3.0400391 1.256836,1.2568359 3.040039,1.2568359 1.783203,0 3.040039,-1.2568359 1.256836,-1.256836 1.256836,-3.0400391 0,-1.7832031 -1.256836,-3.0400391 Q 63.048828,-10.3125 61.265625,-10.3125 Z"
     style="font-weight:200;font-size:22px;font-family:Comfortaa;letter-spacing:3.5px;fill:#808080"
     id="path77"
     inkscape:connector-curvature="0" /><path
     d="m 72.5,-11.171875 q 0,-0.354492 0.24707,-0.601563 0.257813,-0.257812 0.612305,-0.257812 0.354492,0 0.601562,0.257812 0.257813,0.247071 0.257813,0.601563 v 0.698242 q 1.611328,-1.557617 3.867187,-1.557617 2.309571,0 3.942383,1.643555 1.643555,1.6328122 1.643555,3.9423825 v 5.5859375 q 0,0.35449219 -0.257813,0.61230469 Q 83.166992,0 82.8125,0 82.458008,0 82.200195,-0.24707031 81.953125,-0.50488281 81.953125,-0.859375 v -5.5859375 q 0,-1.6005859 -1.138672,-2.7285156 -1.12793,-1.1386719 -2.728516,-1.1386719 -1.600585,0 -2.739257,1.1386719 -1.12793,1.1279297 -1.12793,2.7285156 v 5.5859375 q 0,0.35449219 -0.257813,0.61230469 Q 73.713867,0 73.359375,0 73.004883,0 72.74707,-0.24707031 72.5,-0.50488281 72.5,-0.859375 Z"
     style="font-weight:200;font-size:22px;font-family:Comfortaa;letter-spacing:3.5px;fill:#808080"
     id="path79"
     inkscape:connector-curvature="0" /></g>
</svg>