<?xml version="1.0" encoding="UTF-8" standalone="no"?>
<!-- Generator: Adobe Illustrator 19.2.1, SVG Export Plug-In . SVG Version: 6.00 Build 0)  -->

<svg
   xmlns:dc="http://purl.org/dc/elements/1.1/"
   xmlns:cc="http://creativecommons.org/ns#"
   xmlns:rdf="http://www.w3.org/1999/02/22-rdf-syntax-ns#"
   xmlns:svg="http://www.w3.org/2000/svg"
   xmlns="http://www.w3.org/2000/svg"
   xmlns:sodipodi="http://sodipodi.sourceforge.net/DTD/sodipodi-0.dtd"
   xmlns:inkscape="http://www.inkscape.org/namespaces/inkscape"
   version="1.1"
   id="Слой_1"
   x="0px"
   y="0px"
   viewBox="0 0 147 47"
   style="enable-background:new 0 0 147 47;"
   xml:space="preserve"
   sodipodi:docname="footer-logo-ru1.svg"
   inkscape:version="0.92.3 (2405546, 2018-03-11)"><metadata
   id="metadata43"><rdf:RDF><cc:Work
       rdf:about=""><dc:format>image/svg+xml</dc:format><dc:type
         rdf:resource="http://purl.org/dc/dcmitype/StillImage" /><dc:title></dc:title></cc:Work></rdf:RDF></metadata><defs
   id="defs41" /><sodipodi:namedview
   pagecolor="#ffffff"
   bordercolor="#666666"
   borderopacity="1"
   objecttolerance="10"
   gridtolerance="10"
   guidetolerance="10"
   inkscape:pageopacity="0"
   inkscape:pageshadow="2"
   inkscape:window-width="1920"
   inkscape:window-height="1001"
   id="namedview39"
   showgrid="false"
   inkscape:zoom="3.2108844"
   inkscape:cx="73.5"
   inkscape:cy="23.5"
   inkscape:window-x="-9"
   inkscape:window-y="-9"
   inkscape:window-maximized="1"
   inkscape:current-layer="Слой_1" />
<style
   type="text/css"
   id="style34">
	.st0{fill:gray;}
	.st1{font-family:'Comfortaa';}
	.st2{font-size:22px;}
	.st3{letter-spacing:3.5px; font-weight:200;}
</style>
<g
   aria-label="фрутон"
   transform="matrix(1 0 0 1 15.0548 30.7078)"
   style="font-weight:200;font-size:22px;font-family:Comfortaa;letter-spacing:3.5px;fill:#808080"
   id="text36"><path
     d="m 6.015625,-10.3125 q -1.4287109,0 -2.4384766,1.2568359 -0.9990234,1.256836 -0.9990234,3.0400391 0,1.7832031 0.9990234,3.0400391 1.0097657,1.2568359 2.4384766,1.2568359 1.4287109,0 2.4277344,-1.2568359 1.0097656,-1.256836 1.0097656,-3.0400391 0,-1.7832031 -1.0097656,-3.0400391 Q 7.4443359,-10.3125 6.015625,-10.3125 Z m 8.59375,0 q -1.428711,0 -2.438477,1.2568359 -0.999023,1.256836 -0.999023,3.0400391 0,1.7832031 0.999023,3.0400391 1.009766,1.2568359 2.438477,1.2568359 1.428711,0 2.427734,-1.2568359 1.009766,-1.256836 1.009766,-3.0400391 0,-1.7832031 -1.009766,-3.0400391 Q 16.038086,-10.3125 14.609375,-10.3125 Z m -5.15625,-6.015625 q 0,-0.354492 0.2470703,-0.601562 0.2578125,-0.257813 0.6123047,-0.257813 0.354492,0 0.601563,0.257813 0.257812,0.24707 0.257812,0.601562 v 5.822266 q 1.450195,-1.525391 3.4375,-1.525391 2.137695,0 3.641602,1.761719 1.514648,1.7617185 1.514648,4.253906 0,2.4921875 -1.514648,4.2539063 Q 16.74707,0 14.609375,0 12.62207,0 11.171875,-1.5253906 V 4.296875 q 0,0.3544922 -0.257812,0.6015625 Q 10.666992,5.15625 10.3125,5.15625 9.9580078,5.15625 9.7001953,4.8984375 9.453125,4.6513672 9.453125,4.296875 V -1.5253906 Q 8.0029297,0 6.015625,0 3.8779297,0 2.3632813,-1.7617187 0.859375,-3.5234375 0.859375,-6.015625 q 0,-2.4921875 1.5039063,-4.253906 1.5146484,-1.761719 3.6523437,-1.761719 1.9873047,0 3.4375,1.525391 z"
     style="font-weight:200;font-size:22px;font-family:Comfortaa;letter-spacing:3.5px;fill:#808080"
     id="path45" /><path
     d="m 26.703125,-6.015625 q 0,1.7832031 1.256836,3.0400391 Q 29.216797,-1.71875 31,-1.71875 q 1.783203,0 3.040039,-1.2568359 1.256836,-1.256836 1.256836,-3.0400391 0,-1.7832031 -1.256836,-3.0400391 Q 32.783203,-10.3125 31,-10.3125 q -1.783203,0 -3.040039,1.2568359 -1.256836,1.256836 -1.256836,3.0400391 z m 0,10.3125 q 0,0.3544922 -0.257813,0.6015625 -0.24707,0.2578125 -0.601562,0.2578125 -0.354492,0 -0.612305,-0.2578125 -0.24707,-0.2470703 -0.24707,-0.6015625 v -10.3125 q 0,-2.4921875 1.761719,-4.253906 Q 28.507812,-12.03125 31,-12.03125 q 2.492187,0 4.253906,1.761719 1.761719,1.7617185 1.761719,4.253906 0,2.4921875 -1.761719,4.2539063 Q 33.492187,0 31,0 q -2.492188,0 -4.253906,-1.7617187 -0.02148,-0.021484 -0.04297,-0.042969 z"
     style="font-weight:200;font-size:22px;font-family:Comfortaa;letter-spacing:3.5px;fill:#808080"
     id="path47" /><path
     d="m 46.456055,-0.87011719 -4.125,-9.90429681 q -0.09668,-0.182617 -0.09668,-0.397461 0,-0.354492 0.24707,-0.601563 0.257813,-0.257812 0.612305,-0.257812 0.354492,0 0.612305,0.24707 0.139648,0.150391 0.204101,0.322266 l 3.480469,8.3466796 3.480469,-8.3466796 q 0.06445,-0.171875 0.214843,-0.322266 0.247071,-0.24707 0.601563,-0.24707 0.354492,0 0.601562,0.257812 0.257813,0.247071 0.257813,0.601563 0,0.214844 -0.09668,0.397461 L 46.047852,4.5869141 Q 45.983398,4.7587891 45.84375,4.8984375 45.585937,5.15625 45.231445,5.15625 q -0.354492,0 -0.612304,-0.2578125 Q 44.37207,4.6513672 44.37207,4.296875 q 0,-0.2148438 0.09668,-0.3974609 z"
     style="font-weight:200;font-size:22px;font-family:Comfortaa;letter-spacing:3.5px;fill:#808080"
     id="path49" /><path
     d="m 59.484375,-0.859375 q 0,0.35449219 -0.257813,0.61230469 Q 58.979492,0 58.625,0 58.270508,0 58.012695,-0.24707031 57.765625,-0.50488281 57.765625,-0.859375 v -10.3125 q 0,-0.354492 0.24707,-0.601563 0.257813,-0.257812 0.612305,-0.257812 0.354492,0 0.601562,0.257812 0.257813,0.247071 0.257813,0.601563 v 0.225586 q 1.27832,-1.084961 3.007812,-1.084961 1.955079,0 3.340821,1.385742 0.290039,0.290039 0.526367,0.612305 0.236328,-0.322266 0.526367,-0.612305 1.385742,-1.385742 3.34082,-1.385742 1.955079,0 3.340821,1.385742 1.385742,1.3857424 1.385742,3.3408205 v 6.4453125 q 0,0.35449219 -0.257813,0.61230469 Q 74.448242,0 74.09375,0 73.739258,0 73.481445,-0.24707031 73.234375,-0.50488281 73.234375,-0.859375 v -6.4453125 q 0,-1.2460938 -0.880859,-2.1269531 -0.88086,-0.8808594 -2.126954,-0.8808594 -1.246093,0 -2.126953,0.8808594 -0.880859,0.8808593 -0.880859,2.1269531 v 6.4453125 q 0,0.35449219 -0.257813,0.61230469 Q 66.713867,0 66.359375,0 66.004883,0 65.74707,-0.24707031 65.5,-0.50488281 65.5,-0.859375 v -6.4453125 q 0,-1.2460938 -0.880859,-2.1269531 -0.88086,-0.8808594 -2.126954,-0.8808594 -1.246093,0 -2.126953,0.8808594 -0.880859,0.8808593 -0.880859,2.1269531 z"
     style="font-weight:200;font-size:22px;font-family:Comfortaa;letter-spacing:3.5px;fill:#808080"
     id="path51" /><path
     d="m 92.203125,-6.015625 q 0,2.4921875 -1.761719,4.2539063 Q 88.679687,0 86.1875,0 83.695312,0 81.933594,-1.7617187 80.171875,-3.5234375 80.171875,-6.015625 q 0,-2.4921875 1.761719,-4.253906 1.761718,-1.761719 4.253906,-1.761719 2.492187,0 4.253906,1.761719 1.761719,1.7617185 1.761719,4.253906 z M 86.1875,-10.3125 q -1.783203,0 -3.040039,1.2568359 -1.256836,1.256836 -1.256836,3.0400391 0,1.7832031 1.256836,3.0400391 1.256836,1.2568359 3.040039,1.2568359 1.783203,0 3.040039,-1.2568359 1.256836,-1.256836 1.256836,-3.0400391 0,-1.7832031 -1.256836,-3.0400391 Q 87.970703,-10.3125 86.1875,-10.3125 Z"
     style="font-weight:200;font-size:22px;font-family:Comfortaa;letter-spacing:3.5px;fill:#808080"
     id="path53" /><path
     d="m 99.140625,-5.15625 v 4.296875 q 0,0.35449219 -0.257813,0.61230469 Q 98.635742,0 98.28125,0 97.926758,0 97.668945,-0.24707031 97.421875,-0.50488281 97.421875,-0.859375 v -10.3125 q 0,-0.354492 0.24707,-0.601563 0.257813,-0.257812 0.612305,-0.257812 0.354492,0 0.601562,0.257812 0.257813,0.247071 0.257813,0.601563 V -6.875 h 6.445315 v -4.296875 q 0,-0.354492 0.24707,-0.601563 0.25781,-0.257812 0.6123,-0.257812 0.35449,0 0.60157,0.257812 0.25781,0.247071 0.25781,0.601563 v 10.3125 q 0,0.35449219 -0.25781,0.61230469 Q 106.7998,0 106.44531,0 q -0.35449,0 -0.6123,-0.24707031 -0.24707,-0.2578125 -0.24707,-0.61230469 V -5.15625 Z"
     style="font-weight:200;font-size:22px;font-family:Comfortaa;letter-spacing:3.5px;fill:#808080"
     id="path55" /></g>
</svg>