<?xml version="1.0" encoding="UTF-8" standalone="no"?>
<!-- Generator: Adobe Illustrator 19.2.1, SVG Export Plug-In . SVG Version: 6.00 Build 0)  -->

<svg
   xmlns:dc="http://purl.org/dc/elements/1.1/"
   xmlns:cc="http://creativecommons.org/ns#"
   xmlns:rdf="http://www.w3.org/1999/02/22-rdf-syntax-ns#"
   xmlns:svg="http://www.w3.org/2000/svg"
   xmlns="http://www.w3.org/2000/svg"
   xmlns:sodipodi="http://sodipodi.sourceforge.net/DTD/sodipodi-0.dtd"
   xmlns:inkscape="http://www.inkscape.org/namespaces/inkscape"
   version="1.1"
   id="Слой_1"
   x="0px"
   y="0px"
   viewBox="0 0 147 47"
   style="enable-background:new 0 0 147 47;"
   xml:space="preserve"
   sodipodi:docname="logo-en1.svg"
   inkscape:version="0.92.3 (2405546, 2018-03-11)"><metadata
   id="metadata19"><rdf:RDF><cc:Work
       rdf:about=""><dc:format>image/svg+xml</dc:format><dc:type
         rdf:resource="http://purl.org/dc/dcmitype/StillImage" /><dc:title></dc:title></cc:Work></rdf:RDF></metadata><defs
   id="defs17" /><sodipodi:namedview
   pagecolor="#ffffff"
   bordercolor="#666666"
   borderopacity="1"
   objecttolerance="10"
   gridtolerance="10"
   guidetolerance="10"
   inkscape:pageopacity="0"
   inkscape:pageshadow="2"
   inkscape:window-width="1920"
   inkscape:window-height="1001"
   id="namedview15"
   showgrid="false"
   inkscape:zoom="11.972789"
   inkscape:cx="55.834943"
   inkscape:cy="23.5"
   inkscape:window-x="-9"
   inkscape:window-y="-9"
   inkscape:window-maximized="1"
   inkscape:current-layer="Слой_1" />
<style
   type="text/css"
   id="style10">
	.st0{font-family:'Comfortaa';}
	.st1{font-size:22px;}
	.st2{letter-spacing:1.5px;font-weight:200;}
</style>
<g
   aria-label="fruton"
   transform="translate(25.191177,26.584186)"
   style="font-weight:200;font-size:22px;font-family:Comfortaa;letter-spacing:1.5px"
   id="text12"><path
     d="m 7.8095703,-17.1875 q 0.2792969,0 0.4726563,0.193359 0.1933593,0.19336 0.1933593,0.472657 0,0.279297 -0.1933593,0.483398 -0.1933594,0.193359 -0.4726563,0.193359 -3.7919922,0 -3.7919922,3.78125 v 0.698243 h 2.9111328 q 0.2792969,0 0.4726563,0.193359 0.1933594,0.193359 0.1933594,0.472656 0,0.279297 -0.1933594,0.483399 -0.1933594,0.193359 -0.4726563,0.193359 H 4.0175781 v 9.35644538 q 0,0.27929687 -0.1933593,0.47265625 Q 3.6308594,0 3.3515625,0 3.0722656,0 2.8681641,-0.19335937 2.6748047,-0.38671875 2.6748047,-0.66601562 V -10.022461 H 1.5683594 q -0.2792969,0 -0.4726563,-0.193359 -0.19335935,-0.204102 -0.19335935,-0.483399 0,-0.279297 0.19335935,-0.472656 0.1933594,-0.193359 0.4726563,-0.193359 h 1.1064453 v -0.698243 q 0,-5.124023 5.1347656,-5.124023 z"
     style="font-weight:200;font-size:22px;font-family:Comfortaa;letter-spacing:1.5px"
     id="path21"
     inkscape:connector-curvature="0" /><path
     d="m 10.985352,-11.365234 q 0,-0.279297 0.193359,-0.472657 0.193359,-0.193359 0.472656,-0.193359 0.279297,0 0.472656,0.193359 0.19336,0.19336 0.19336,0.472657 v 1.5146481 q 2.180664,-2.1806641 4.683594,-2.1806641 1.342773,0 2.298828,0.418945 0.171875,0.06445 0.311523,0.204102 0.182617,0.182617 0.182617,0.472656 0,0.279297 -0.193359,0.472656 -0.193359,0.19336 -0.472656,0.19336 -0.171875,0 -0.300782,-0.06445 -0.751953,-0.365235 -1.826171,-0.365235 -1.933594,0 -3.308594,1.3750002 -1.375,1.3642579 -1.375,3.3085938 v 5.34960938 q 0,0.27929687 -0.19336,0.47265625 Q 11.930664,0 11.651367,0 11.37207,0 11.178711,-0.19335937 10.985352,-0.38671875 10.985352,-0.66601562 Z"
     style="font-weight:200;font-size:22px;font-family:Comfortaa;letter-spacing:1.5px"
     id="path23"
     inkscape:connector-curvature="0" /><path
     d="m 33.916016,-0.66601562 q 0,0.27929687 -0.204102,0.47265625 Q 33.518555,0 33.239258,0 32.959961,0 32.766602,-0.19335937 32.573242,-0.38671875 32.573242,-0.66601562 V -1.9121094 Q 30.59668,0 28.34082,0 q -2.288086,0 -3.942383,-1.6220703 -1.62207,-1.6328125 -1.62207,-3.953125 v -5.7900387 q 0,-0.279297 0.19336,-0.472657 0.193359,-0.193359 0.472656,-0.193359 0.279297,0 0.472656,0.193359 0.193359,0.19336 0.193359,0.472657 v 5.7900387 q 0,1.7617187 1.235352,2.9970703 1.27832,1.2460938 2.99707,1.2460938 1.740235,0 2.986328,-1.2460938 1.246094,-1.2353516 1.246094,-2.9970703 v -5.7900387 q 0,-0.279297 0.19336,-0.472657 0.193359,-0.193359 0.472656,-0.193359 0.279297,0 0.472656,0.193359 0.204102,0.19336 0.204102,0.472657 z"
     style="font-weight:200;font-size:22px;font-family:Comfortaa;letter-spacing:1.5px"
     id="path25"
     inkscape:connector-curvature="0" /><path
     d="m 43.214844,-1.3320312 q 0.279297,0 0.472656,0.1933593 0.204102,0.1933594 0.204102,0.47265628 0,0.27929687 -0.204102,0.47265625 Q 43.494141,0 43.214844,0 38.982422,0 38.982422,-4.2324219 v -6.4667971 h -1.106445 q -0.279297,0 -0.483399,-0.193359 -0.193359,-0.19336 -0.193359,-0.472656 0,-0.279297 0.193359,-0.472657 0.204102,-0.193359 0.483399,-0.193359 h 1.106445 v -4.500977 q 0,-0.279296 0.193359,-0.472656 0.19336,-0.193359 0.472656,-0.193359 0.279297,0 0.472657,0.193359 0.204101,0.19336 0.204101,0.472656 v 4.500977 h 2.008789 q 0.279297,0 0.472657,0.193359 0.204101,0.19336 0.204101,0.472657 0,0.279296 -0.204101,0.472656 -0.19336,0.193359 -0.472657,0.193359 h -2.008789 v 6.4667971 q 0,2.9003907 2.889649,2.9003907 z"
     style="font-weight:200;font-size:22px;font-family:Comfortaa;letter-spacing:1.5px"
     id="path27"
     inkscape:connector-curvature="0" /><path
     d="m 59.28125,-6.015625 q 0,2.4921875 -1.761719,4.2539063 Q 55.757812,0 53.265625,0 50.773437,0 49.011719,-1.7617187 47.25,-3.5234375 47.25,-6.015625 q 0,-2.4921875 1.761719,-4.253906 1.761718,-1.761719 4.253906,-1.761719 2.492187,0 4.253906,1.761719 1.761719,1.7617185 1.761719,4.253906 z m -6.015625,-4.683594 q -1.933594,0 -3.308594,1.3750002 -1.375,1.3750001 -1.375,3.3085938 0,1.9335938 1.375,3.3085937 1.375,1.3750001 3.308594,1.3750001 1.933594,0 3.308594,-1.3750001 1.364258,-1.3642578 1.364258,-3.3085937 0,-1.9443359 -1.364258,-3.3085938 -1.375,-1.3750002 -3.308594,-1.3750002 z"
     style="font-weight:200;font-size:22px;font-family:Comfortaa;letter-spacing:1.5px"
     id="path29"
     inkscape:connector-curvature="0" /><path
     d="m 62.510742,-11.365234 q 0,-0.279297 0.19336,-0.472657 0.193359,-0.193359 0.472656,-0.193359 0.279297,0 0.472656,0.193359 0.193359,0.19336 0.193359,0.472657 v 1.246093 q 1.976563,-1.912109 4.232422,-1.912109 2.320313,0 3.931641,1.632812 1.643555,1.632813 1.643555,3.9423833 v 5.79003908 q 0,0.27929687 -0.204102,0.47265625 Q 73.25293,0 72.973633,0 72.694336,0 72.500977,-0.19335937 72.307617,-0.38671875 72.307617,-0.66601562 V -6.4560547 q 0,-1.7724609 -1.246094,-2.9863281 -1.246093,-1.2568362 -2.986328,-1.2568362 -1.740234,0 -2.99707,1.2568362 -1.235352,1.2246094 -1.235352,2.9863281 v 5.79003908 q 0,0.27929687 -0.193359,0.47265625 Q 63.456055,0 63.176758,0 q -0.279297,0 -0.472656,-0.19335937 -0.19336,-0.19335938 -0.19336,-0.47265625 z"
     style="font-weight:200;font-size:22px;font-family:Comfortaa;letter-spacing:1.5px"
     id="path31"
     inkscape:connector-curvature="0" /></g>
</svg>