<?xml version="1.0" encoding="UTF-8" standalone="no"?>
<!-- Generator: Adobe Illustrator 19.2.1, SVG Export Plug-In . SVG Version: 6.00 Build 0)  -->

<svg
   xmlns:dc="http://purl.org/dc/elements/1.1/"
   xmlns:cc="http://creativecommons.org/ns#"
   xmlns:rdf="http://www.w3.org/1999/02/22-rdf-syntax-ns#"
   xmlns:svg="http://www.w3.org/2000/svg"
   xmlns="http://www.w3.org/2000/svg"
   xmlns:sodipodi="http://sodipodi.sourceforge.net/DTD/sodipodi-0.dtd"
   xmlns:inkscape="http://www.inkscape.org/namespaces/inkscape"
   version="1.1"
   id="Слой_1"
   x="0px"
   y="0px"
   viewBox="0 0 147 47"
   style="enable-background:new 0 0 147 47;"
   xml:space="preserve"
   sodipodi:docname="logo-ru1.svg"
   inkscape:version="0.92.3 (2405546, 2018-03-11)"><metadata
   id="metadata30"><rdf:RDF><cc:Work
       rdf:about=""><dc:format>image/svg+xml</dc:format><dc:type
         rdf:resource="http://purl.org/dc/dcmitype/StillImage" /><dc:title></dc:title></cc:Work></rdf:RDF></metadata><defs
   id="defs28" /><sodipodi:namedview
   pagecolor="#ffffff"
   bordercolor="#666666"
   borderopacity="1"
   objecttolerance="10"
   gridtolerance="10"
   guidetolerance="10"
   inkscape:pageopacity="0"
   inkscape:pageshadow="2"
   inkscape:window-width="1920"
   inkscape:window-height="1001"
   id="namedview26"
   showgrid="false"
   inkscape:zoom="11.972789"
   inkscape:cx="65.220762"
   inkscape:cy="23.5"
   inkscape:window-x="-9"
   inkscape:window-y="-9"
   inkscape:window-maximized="1"
   inkscape:current-layer="Слой_1" />
<style
   type="text/css"
   id="style21">
	.st0{font-family:&quot;Comfortaa&quot;;}
	.st1{font-size:18px;}
	.st2{letter-spacing:1.5px; font-weight:200;}
</style>
<g
   aria-label="фрутон"
   transform="matrix(1 0 0 1 15.0548 30.7078)"
   style="font-weight:200;font-size:18px;font-family:Comfortaa;letter-spacing:1.5px"
   id="text23"><path
     d="m 4.8427734,-8.7539063 q -1.3007812,0 -2.2148437,1.1425782 -0.8876953,1.1162109 -0.8876953,2.6894531 0,1.5820312 0.8876953,2.6982422 0.9052734,1.1337891 2.2148437,1.1337891 0.6591797,0 1.2041016,-0.28125 0.5449219,-0.2900391 1.0019531,-0.8613282 v 0.00879 q 0.8964844,-1.1074219 0.8964844,-2.6982422 0,-1.5908203 -0.8964844,-2.6982422 v 0.00879 Q 6.5917969,-8.1826172 6.046875,-8.4638672 5.5019531,-8.7539063 4.8427734,-8.7539063 Z m 7.2949216,0 q -1.300781,0 -2.2148434,1.1425782 -0.8876953,1.0986328 -0.8876953,2.6894531 0,1.5996094 0.8876953,2.6982422 0.9052734,1.1337891 2.2148434,1.1337891 1.291993,0 2.206055,-1.1425782 v 0.00879 q 0.887695,-1.0986328 0.887695,-2.6982422 0,-1.5996094 -0.887695,-2.6982422 v 0.00879 Q 13.429688,-8.7539063 12.137695,-8.7539063 Z M 7.9453125,-13.517578 q 0,-0.228516 0.1582031,-0.386719 0.1582032,-0.158203 0.3867188,-0.158203 0.2285156,0 0.3867187,0.158203 0.1582032,0.158203 0.1582032,0.386719 v 5.2470702 Q 10.529297,-9.84375 12.137695,-9.84375 q 1.722657,0 2.953125,1.4326172 1.239258,1.4501953 1.239258,3.4892578 0,2.0390625 -1.239258,3.4892578 Q 13.860352,0 12.137695,0 10.529297,0 9.0351563,-1.5732422 v 5.2470703 q 0,0.2285157 -0.1582032,0.3867188 Q 8.71875,4.21875 8.4902344,4.21875 8.2617188,4.21875 8.1035156,4.0605469 7.9453125,3.9023438 7.9453125,3.6738281 V -1.5732422 Q 6.4335937,0 4.8427734,0 3.1113281,0 1.8808594,-1.4326172 0.65039062,-2.8740234 0.65039062,-4.921875 q 0,-2.0478516 1.23046878,-3.4892578 1.2304687,-1.4326172 2.961914,-1.4326172 1.5908203,0 3.1025391,1.5732422 z"
     style="font-weight:200;font-size:18px;font-family:Comfortaa;letter-spacing:1.5px"
     id="path32" /><path
     d="m 20.167969,-4.921875 q 0,1.5820312 1.125,2.7070312 1.125,1.1250001 2.707031,1.1250001 1.582031,0 2.707031,-1.1250001 1.116211,-1.1162109 1.116211,-2.7070312 0,-1.5908203 -1.116211,-2.7070312 -1.125,-1.1250001 -2.707031,-1.1250001 -1.582031,0 -2.707031,1.1250001 -1.125,1.125 -1.125,2.7070312 z m 0,8.5957031 q 0,0.2285157 -0.158203,0.3867188 -0.158204,0.1582031 -0.386719,0.1582031 -0.228516,0 -0.386719,-0.1582031 Q 19.078125,3.9023438 19.078125,3.6738281 V -4.921875 q 0,-2.0390625 1.441406,-3.4804688 Q 21.960937,-9.84375 24,-9.84375 q 2.039062,0 3.480469,1.4414062 1.441406,1.4414063 1.441406,3.4804688 0,2.0390625 -1.441406,3.4804688 Q 26.039062,0 24,0 21.960937,0 20.519531,-1.4414062 l -0.351562,-0.3427735 z"
     style="font-weight:200;font-size:18px;font-family:Comfortaa;letter-spacing:1.5px"
     id="path34" /><path
     d="M 35.431641,-0.55371094 31.87207,-9.0791016 q -0.03516,-0.1142578 -0.03516,-0.2197265 0,-0.2285157 0.158203,-0.3867188 0.166992,-0.1582031 0.395508,-0.1582031 0.228516,0 0.386719,0.1582031 0.0791,0.079102 0.131836,0.2197266 l 3.120117,7.4707031 3.120117,-7.4707031 q 0.05273,-0.140625 0.149414,-0.2373047 0.140625,-0.140625 0.37793,-0.140625 0.228515,0 0.386719,0.1582031 0.158203,0.1582031 0.166992,0.3867188 0,0.087891 -0.03516,0.1933593 L 34.78125,3.8496094 Q 34.737305,3.9726563 34.658203,4.0517578 34.491211,4.21875 34.262695,4.21875 q -0.228515,0 -0.386718,-0.1582031 -0.158204,-0.1582031 -0.158204,-0.3867188 0,-0.1142578 0.03516,-0.1933593 z"
     style="font-weight:200;font-size:18px;font-family:Comfortaa;letter-spacing:1.5px"
     id="path36" /><path
     d="m 44.226562,-0.54492187 q 0,0.22851562 -0.158203,0.38671875 Q 43.910156,0 43.681641,0 43.453125,0 43.286133,-0.15820312 43.12793,-0.31640625 43.12793,-0.54492187 V -9.2988281 q 0,-0.2285157 0.158203,-0.3867188 0.166992,-0.1582031 0.395508,-0.1582031 0.228515,0 0.386718,0.1582031 0.158203,0.1582031 0.158203,0.3867188 v 0.5888672 Q 45.5625,-9.84375 46.959961,-9.84375 q 1.582031,0 2.707031,1.125 0.272461,0.28125 0.571289,0.6855469 0.298828,-0.4042969 0.580078,-0.6855469 1.125,-1.125 2.707032,-1.125 1.582031,0 2.707031,1.125 1.116211,1.1162109 1.116211,2.7070313 v 5.46679683 q 0,0.22851562 -0.158203,0.38671875 Q 57.032227,0 56.803711,0 56.575195,0 56.416992,-0.15820312 56.258789,-0.31640625 56.258789,-0.54492187 V -6.0117187 q 0,-1.1337891 -0.808594,-1.9335938 -0.808593,-0.8085938 -1.924804,-0.8085938 -1.125,0 -1.933594,0.8085938 -0.799805,0.7998047 -0.799805,1.9335938 v 5.46679683 q 0,0.22851562 -0.166992,0.38671875 Q 50.466797,0 50.238281,0 50.009766,0 49.851562,-0.15820312 49.693359,-0.31640625 49.693359,-0.54492187 V -6.0117187 q 0,-1.1337891 -0.799804,-1.9335938 -0.808594,-0.8085938 -1.933594,-0.8085938 -1.125,0 -1.933594,0.8085938 -0.799805,0.7998047 -0.799805,1.9335938 z"
     style="font-weight:200;font-size:18px;font-family:Comfortaa;letter-spacing:1.5px"
     id="path38" /><path
     d="m 69.984375,-4.921875 q 0,2.0390625 -1.441406,3.4804688 Q 67.101562,0 65.0625,0 63.023437,0 61.582031,-1.4414062 60.140625,-2.8828125 60.140625,-4.921875 q 0,-2.0390625 1.441406,-3.4804688 1.441406,-1.4414062 3.480469,-1.4414062 2.039062,0 3.480469,1.4414062 1.441406,1.4414063 1.441406,3.4804688 z M 65.0625,-8.7539063 q -1.582031,0 -2.707031,1.1250001 -1.125,1.125 -1.125,2.7070312 0,1.5820312 1.125,2.7070312 1.125,1.1250001 2.707031,1.1250001 1.582031,0 2.707031,-1.1250001 1.116211,-1.1162109 1.116211,-2.7070312 0,-1.5908203 -1.116211,-2.7070312 -1.125,-1.1250001 -2.707031,-1.1250001 z"
     style="font-weight:200;font-size:18px;font-family:Comfortaa;letter-spacing:1.5px"
     id="path40" /><path
     d="m 73.998047,-4.3769531 v 3.83203123 q 0,0.22851562 -0.158203,0.38671875 Q 73.681641,0 73.453125,0 73.224609,0 73.066406,-0.15820312 72.908203,-0.31640625 72.908203,-0.54492187 V -9.2988281 q 0,-0.2285157 0.158203,-0.3867188 0.158203,-0.1582031 0.386719,-0.1582031 0.228516,0 0.386719,0.1582031 0.158203,0.1582031 0.158203,0.3867188 v 3.8320312 h 5.835937 v -3.8320312 q 0,-0.2285157 0.158203,-0.3867188 0.158204,-0.1582031 0.386719,-0.1582031 0.228516,0 0.386719,0.1582031 0.158203,0.1582031 0.158203,0.3867188 v 8.75390623 q 0,0.22851562 -0.158203,0.38671875 Q 80.607422,0 80.378906,0 80.150391,0 79.992187,-0.15820312 79.833984,-0.31640625 79.833984,-0.54492187 V -4.3769531 Z"
     style="font-weight:200;font-size:18px;font-family:Comfortaa;letter-spacing:1.5px"
     id="path42" /></g>
</svg>