<svg xmlns="http://www.w3.org/2000/svg" viewBox="0 0 25 34"><defs><style>.cls-1{fill:#5c2671;fill-rule:evenodd;}</style></defs><title>Ресурс 4</title><g id="Слой_2" data-name="Слой 2"><g id="контакты"><g id="Forma_1" data-name="Forma 1"><path class="cls-1" d="M12.5,0A12.52,12.52,0,0,0,0,12.52a12.22,12.22,0,0,0,1.09,5.11C4.22,24.47,10.21,31.7,12,33.76a.69.69,0,0,0,1.05,0c1.76-2.05,7.75-9.28,10.88-16.13A12.22,12.22,0,0,0,25,12.52,12.52,12.52,0,0,0,12.5,0Zm0,19A6.5,6.5,0,1,1,19,12.52,6.5,6.5,0,0,1,12.5,19Z"/></g></g></g></svg>